<svg width="400" height="400" xmlns="http://www.w3.org/2000/svg">
    <path d="M190.8 49.56c-7.443.431-20.118 2.433-27 4.264-1.1.293-3.62 1.004-5.6 1.58-1.98.575-4.5 1.302-5.6 1.613-1.1.312-2.81.916-3.8 1.344-.99.428-3.463 1.429-5.496 2.225-2.033.796-4.193 1.685-4.8 1.976-6.703 3.214-12.563 6.288-15.304 8.027-9.581 6.08-10.816 6.945-17.142 12.011-2.747 2.2-5.549 4.441-6.226 4.98-1.644 1.309-11.012 10.69-12.252 12.269-.539.687-2.518 3.117-4.398 5.4-4.172 5.067-7.096 9.239-12.722 18.151-1.641 2.599-4.786 8.613-7.898 15.104-.291.607-1.18 2.767-1.976 4.8s-1.797 4.506-2.225 5.496c-.428.99-1.032 2.7-1.344 3.8a1103.3 1103.3 0 0 1-1.613 5.6c-3.261 11.212-5.15 21.977-5.861 33.4-.391 6.28-.128 19.492.445 22.4.196.99.655 4.23 1.021 7.2.918 7.454 3.954 21.182 5.236 23.68.305.594.756 2.034 1.002 3.2.245 1.166.69 2.57.989 3.12.298.55 1.109 2.53 1.803 4.4 4.307 11.614 14.771 29.356 23.356 39.6 1.014 1.21 2.642 3.19 3.617 4.4 1.989 2.468 10.83 11.314 13.297 13.305 8.964 7.232 11.75 9.349 15.891 12.07 2.64 1.734 5.702 3.755 6.803 4.489 1.102.735 2.155 1.336 2.339 1.336.184 0 .812.334 1.396.742 1.136.795 7.764 4.197 11.062 5.678 3.641 1.635 8.394 3.566 8.8 3.576.22.005.94.303 1.6.662 1.345.731 4.15 1.607 15.2 4.747 4.743 1.347 12.895 2.753 24.4 4.206 3.721.47 21.262.463 24.8-.01 11.647-1.558 23.142-3.621 24.641-4.423.389-.208 1.097-.378 1.574-.378.477 0 2.491-.544 4.477-1.209 1.985-.666 4.262-1.373 5.059-1.572 1.62-.405 9.569-3.541 12.649-4.991 4.8-2.258 12.052-5.979 12.631-6.481.348-.301.812-.547 1.032-.547.22 0 1.196-.511 2.168-1.135l4.769-3.06c3.781-2.426 9.199-6.279 11.794-8.386 7.936-6.445 15.573-13.622 18.956-17.816.798-.988 2.013-2.428 2.7-3.2 3.237-3.633 8.003-10.069 11.555-15.603a20709.7 20709.7 0 0 0 3.06-4.769c.624-.972 1.135-1.948 1.135-2.168 0-.22.246-.684.547-1.032.499-.576 4.178-7.742 6.484-12.631 2.438-5.17 7.769-20.407 7.769-22.208 0-.464.17-1.162.378-1.551.865-1.616 2.315-9.849 4.411-25.041.792-5.739.499-20.731-.552-28.281-.53-3.806-1.091-7.909-1.248-9.119-.529-4.093-3.687-16.984-4.974-20.304-.448-1.158-.817-2.418-.819-2.8-.002-.383-.446-1.596-.987-2.696-.541-1.1-.993-2.18-1.003-2.4-.02-.411-1.992-5.25-3.586-8.8-1.481-3.298-4.883-9.926-5.678-11.062-.408-.584-.742-1.201-.742-1.37 0-.17-.604-1.223-1.343-2.339a1815.46 1815.46 0 0 1-4.473-6.829c-1.722-2.64-4.853-6.934-6.957-9.543a8335.776 8335.776 0 0 1-5.161-6.4c-1.757-2.183-11.008-11.424-13.138-13.123a360.536 360.536 0 0 1-4.6-3.777c-5.038-4.202-13.76-10.208-20.928-14.41-3.481-2.041-14.609-7.377-18.2-8.728-2.09-.786-4.34-1.691-5-2.011-.66-.32-2.1-.794-3.2-1.054-1.1-.259-2.45-.693-3-.964-1.037-.512-10.356-2.869-15.6-3.946-11.162-2.292-26.56-3.368-38.4-2.684m16.6 45.673c18.024 1.326 34.901 6.388 45.74 13.719 1.177.797 2.278 1.448 2.445 1.448.168 0 2.519 1.665 5.225 3.7a861.051 861.051 0 0 0 6.155 4.598c1.923 1.398 12.563 12.07 14.259 14.302.836 1.1 2.567 3.352 3.848 5.005 5.237 6.758 11.679 18.204 13.28 23.595.228.77.98 2.93 1.671 4.8.69 1.87 1.511 4.66 1.825 6.2.313 1.54.911 4.06 1.329 5.6.423 1.56 1.044 6.254 1.403 10.6.353 4.29.707 8.43.786 9.2.822 8.069-3.927 36.041-6.618 38.98-.191.209-.348.765-.348 1.236s-.563 2.01-1.251 3.42c-3.199 6.559-5.348 10.696-6.319 12.164-.582.88-1.232 1.89-1.444 2.244-6.691 11.17-22.172 26.651-33.342 33.342-.354.212-1.364.862-2.244 1.444-.88.582-3.49 2-5.8 3.152a983.044 983.044 0 0 0-6 3.012c-.99.506-2.43 1.05-3.2 1.209-.77.159-1.58.424-1.8.588-.74.551-6.772 2.484-10 3.204-1.76.393-4.28.993-5.6 1.333-9.068 2.34-34.024 2.359-42.484.032-1.147-.315-3.667-.915-5.6-1.332-1.934-.417-5.046-1.322-6.916-2.01-1.87-.688-4.03-1.438-4.8-1.666-5.434-1.614-17.317-8.32-24-13.544-1.43-1.118-3.5-2.727-4.6-3.576-2.271-1.752-12.928-12.389-14.298-14.271a895.48 895.48 0 0 0-4.317-5.8c-5.144-6.871-10.755-16.922-12.593-22.561-.287-.88-1.149-3.4-1.914-5.6-3.694-10.61-5.691-27.373-4.722-39.615.715-9.034 1.257-13.768 1.708-14.934.223-.578.744-2.671 1.158-4.651.689-3.303 2.249-8.449 3.152-10.4.204-.44.585-1.52.847-2.4.262-.88.795-2.23 1.184-3 .389-.77 1.745-3.47 3.013-6 1.269-2.53 2.729-5.157 3.244-5.838.516-.681.938-1.412.938-1.624 0-.213.315-.739.7-1.169.385-.431 1.414-1.86 2.286-3.176 4.592-6.93 16.701-19.498 23.53-24.42 2.519-1.816 6.773-4.78 7.423-5.172a42.694 42.694 0 0 0 1.861-1.238c.66-.461 3.27-1.876 5.8-3.145 2.53-1.268 5.23-2.624 6-3.013.77-.389 2.12-.922 3-1.184.88-.262 1.96-.643 2.4-.847 1.951-.903 7.097-2.463 10.4-3.152 1.98-.414 4.098-.944 4.708-1.18 1.027-.397 4.297-.775 13.892-1.605 5.665-.49 8.384-.49 15-.004m-31.5 29.589c-.894.533-1.11 98.608-.22 99.498.636.636 72.761.7 73.946.066 1.203-.644 1.203-22.928 0-23.572-.508-.272-8.917-.414-24.523-.414-18.376 0-23.902-.113-24.419-.5-.616-.46-.678-3.441-.777-37.38-.086-29.593-.21-36.983-.626-37.4-.672-.672-22.292-.947-23.381-.298" fill="#2e6ea5" fill-rule="evenodd"/>
</svg>
